<?xml version="1.0" encoding="utf-8"?>
<!-- Generator: Adobe Illustrator 23.0.6, SVG Export Plug-In . SVG Version: 6.00 Build 0)  -->
<svg version="1.1" id="Layer_1" xmlns="http://www.w3.org/2000/svg" xmlns:xlink="http://www.w3.org/1999/xlink" x="0px" y="0px"
	 viewBox="0 0 184 17.4" style="enable-background:new 0 0 184 17.4;" xml:space="preserve">
<style type="text/css">
	.st0{fill:#FFFFFF;}
</style>
<g>
	<path class="st0" d="M0,16.4V1h2.3c1,0,1.8,0.1,2.5,0.2c0.6,0.2,1.1,0.4,1.6,0.8c0.4,0.4,0.8,0.9,1,1.5c0.3,0.6,0.4,1.2,0.4,1.8
		c0,1.1-0.4,2-1.3,2.8c0.8,0.3,1.5,0.8,1.9,1.5c0.5,0.7,0.7,1.5,0.7,2.4c0,1.2-0.4,2.2-1.3,3.1c-0.5,0.5-1.1,0.9-1.7,1.1
		c-0.7,0.2-1.6,0.3-2.6,0.3L0,16.4L0,16.4z M2.3,7.7H3c0.9,0,1.5-0.2,1.9-0.6s0.6-0.9,0.6-1.7c0-0.7-0.2-1.3-0.6-1.7
		c-0.4-0.4-1-0.6-1.8-0.6H2.3V7.7z M2.3,14.3h1.4c1,0,1.8-0.2,2.3-0.6c0.5-0.4,0.8-1,0.8-1.7c0-0.7-0.2-1.2-0.8-1.7
		C5.6,9.8,4.8,9.6,3.5,9.6H2.3V14.3z"/>
	<path class="st0" d="M25,12.7h-6.6l-1.7,3.7h-2.5l7.6-16.4l7.4,16.4h-2.5L25,12.7z M24,10.5l-2.3-5.2l-2.4,5.2H24z"/>
	<path class="st0" d="M37.5,7.2l6-6.1h3.1l-7,7l7,8.4h-3.1l-5.5-6.9l-0.5,0.5v6.4h-2.3V1h2.3C37.5,1,37.5,7.2,37.5,7.2z"/>
	<path class="st0" d="M61.2,3.2h-6.2v3.7h6v2.2h-6v5.1h6.2v2.2h-8.5V1h8.5V3.2z"/>
	<path class="st0" d="M68.4,16.4V1h3.2c1.6,0,2.8,0.1,3.7,0.5c1,0.3,1.8,0.8,2.6,1.5c1.6,1.4,2.4,3.3,2.4,5.7c0,2.4-0.8,4.3-2.5,5.7
		c-0.8,0.7-1.7,1.2-2.6,1.5c-0.8,0.3-2.1,0.4-3.6,0.4L68.4,16.4L68.4,16.4z M70.7,14.3h1.1c1,0,1.9-0.1,2.6-0.3
		c0.7-0.2,1.3-0.6,1.9-1.1c1.1-1,1.7-2.4,1.7-4.1c0-1.7-0.6-3.1-1.7-4.1c-1-0.9-2.5-1.4-4.5-1.4h-1.1V14.3z"/>
	<path class="st0" d="M86.5,8.7c0-2.2,0.8-4,2.4-5.6c1.6-1.6,3.5-2.3,5.7-2.3c2.2,0,4.1,0.8,5.6,2.3c1.6,1.6,2.4,3.5,2.4,5.7
		c0,2.2-0.8,4.1-2.4,5.6c-1.6,1.6-3.5,2.3-5.8,2.3c-2,0-3.8-0.7-5.3-2.1C87.4,13.1,86.5,11.1,86.5,8.7z M88.9,8.7
		c0,1.7,0.6,3.1,1.7,4.2s2.4,1.6,3.9,1.6c1.6,0,3-0.6,4.1-1.7c1.1-1.1,1.7-2.5,1.7-4.1c0-1.6-0.6-3-1.6-4.1
		c-1.1-1.1-2.4-1.7-4.1-1.7c-1.6,0-2.9,0.6-4.1,1.7C89.4,5.7,88.9,7.1,88.9,8.7z"/>
	<path class="st0" d="M109.6,16.4V0l11.2,11.7V1h2.3v16.3L111.9,5.7v10.8C111.9,16.4,109.6,16.4,109.6,16.4z"/>
	<path class="st0" d="M133.3,1v13.2h4.5v2.2h-6.9V1H133.3z"/>
	<path class="st0" d="M146.4,1v15.4h-2.3V1H146.4z"/>
	<path class="st0" d="M154.2,16.4V0l11.2,11.7V1h2.3v16.3L156.5,5.7v10.8C156.5,16.4,154.2,16.4,154.2,16.4z"/>
	<path class="st0" d="M184,3.2h-6.2v3.7h6v2.2h-6v5.1h6.2v2.2h-8.5V1h8.5V3.2z"/>
</g>
</svg>
