<?xml version="1.0" encoding="utf-8"?>
<!-- Generator: Adobe Illustrator 23.0.6, SVG Export Plug-In . SVG Version: 6.00 Build 0)  -->
<svg version="1.1" id="Layer_1" xmlns="http://www.w3.org/2000/svg" xmlns:xlink="http://www.w3.org/1999/xlink" x="0px" y="0px"
	 viewBox="0 0 184 17.38" style="enable-background:new 0 0 184 17.38;" xml:space="preserve">
<g>
	<path d="M0,16.44V1.05h2.31c1.03,0,1.85,0.08,2.46,0.24c0.62,0.16,1.14,0.43,1.57,0.81c0.43,0.39,0.77,0.88,1.03,1.47
		c0.26,0.59,0.39,1.19,0.39,1.79c0,1.1-0.42,2.04-1.27,2.8c0.82,0.28,1.46,0.77,1.93,1.47c0.48,0.69,0.72,1.5,0.72,2.41
		c0,1.2-0.43,2.22-1.28,3.05c-0.51,0.51-1.09,0.87-1.73,1.07c-0.7,0.19-1.57,0.29-2.62,0.29H0z M2.32,7.66h0.73
		c0.86,0,1.5-0.19,1.9-0.57s0.6-0.95,0.6-1.69c0-0.72-0.21-1.27-0.62-1.65C4.52,3.37,3.92,3.18,3.14,3.18H2.32V7.66z M2.32,14.26
		h1.44c1.05,0,1.82-0.21,2.31-0.62c0.52-0.45,0.78-1.01,0.78-1.7c0-0.66-0.25-1.22-0.75-1.67C5.62,9.82,4.75,9.6,3.5,9.6H2.32V14.26
		z"/>
	<path d="M24.97,12.7h-6.59l-1.72,3.74h-2.5l7.62-16.36l7.35,16.36h-2.54L24.97,12.7z M24.02,10.52l-2.28-5.23l-2.39,5.23H24.02z"/>
	<path d="M37.46,7.19l5.99-6.14h3.1l-6.96,6.97l7,8.42h-3.11l-5.54-6.85l-0.48,0.48v6.37h-2.32V1.05h2.32V7.19z"/>
	<path d="M61.25,3.23h-6.17v3.7h5.99v2.18h-5.99v5.15h6.17v2.18h-8.49V1.05h8.49V3.23z"/>
	<path d="M68.38,16.44V1.05h3.23c1.55,0,2.77,0.15,3.67,0.46c0.96,0.3,1.84,0.81,2.62,1.53c1.59,1.45,2.38,3.35,2.38,5.71
		c0,2.37-0.83,4.28-2.48,5.74c-0.83,0.73-1.7,1.24-2.61,1.53c-0.85,0.29-2.06,0.43-3.62,0.43H68.38z M70.7,14.26h1.05
		c1.04,0,1.91-0.11,2.6-0.33c0.69-0.23,1.32-0.6,1.87-1.11c1.14-1.04,1.72-2.4,1.72-4.08c0-1.69-0.56-3.06-1.69-4.11
		c-1.02-0.94-2.52-1.41-4.5-1.41H70.7V14.26z"/>
<!-- 	<path d="M86.52,8.67c0-2.17,0.79-4.03,2.38-5.58c1.58-1.56,3.48-2.33,5.7-2.33c2.19,0,4.07,0.78,5.64,2.35
		c1.58,1.57,2.36,3.45,2.36,5.65c0,2.21-0.79,4.09-2.37,5.63c-1.59,1.55-3.51,2.32-5.75,2.32c-1.99,0-3.77-0.69-5.35-2.06
		C87.39,13.13,86.52,11.14,86.52,8.67z M88.86,8.7c0,1.7,0.57,3.1,1.71,4.2c1.14,1.1,2.45,1.65,3.94,1.65
		c1.62,0,2.98-0.56,4.09-1.68c1.11-1.13,1.66-2.51,1.66-4.13c0-1.64-0.55-3.02-1.64-4.13c-1.09-1.12-2.44-1.67-4.05-1.67
		c-1.6,0-2.95,0.56-4.06,1.67C89.42,5.72,88.86,7.08,88.86,8.7z"/>
	<path d="M109.62,16.44V0l11.23,11.74V1.05h2.32v16.33L111.94,5.66v10.78H109.62z"/>
	<path d="M133.26,1.05v13.21h4.53v2.18h-6.85V1.05H133.26z"/>
	<path d="M146.4,1.05v15.39h-2.32V1.05H146.4z"/>
	<path d="M154.18,16.44V0l11.23,11.74V1.05h2.32v16.33L156.51,5.66v10.78H154.18z"/>
	<path d="M184,3.23h-6.17v3.7h5.99v2.18h-5.99v5.15H184v2.18h-8.49V1.05H184V3.23z"/> -->
</g>
</svg>
